<svg width="29" height="29" viewBox="0 0 29 29" fill="none" xmlns="http://www.w3.org/2000/svg">
<path d="M1.33325 27.053L8.73228 24.2072C9.20553 24.0252 9.44216 23.9342 9.66354 23.8153C9.86019 23.7098 10.0477 23.5879 10.224 23.4511C10.4225 23.2971 10.6018 23.1178 10.9603 22.7593L25.9999 7.71964C27.4727 6.24689 27.4727 3.85907 26 2.38631C24.5272 0.91355 22.1394 0.913548 20.6666 2.3863L5.62696 17.4259C5.26842 17.7845 5.08915 17.9637 4.93511 18.1623C4.79828 18.3386 4.67645 18.526 4.5709 18.7227C4.45206 18.9441 4.36105 19.1807 4.17903 19.654L1.33325 27.053ZM1.33325 27.053L4.07741 19.9183C4.27378 19.4077 4.37197 19.1524 4.54037 19.0355C4.68755 18.9333 4.86966 18.8947 5.04565 18.9283C5.24703 18.9667 5.44043 19.1601 5.82723 19.5469L8.83935 22.559C9.22615 22.9458 9.41955 23.1392 9.45801 23.3406C9.49161 23.5166 9.45297 23.6987 9.35078 23.8459C9.23385 24.0143 8.97857 24.1125 8.46801 24.3089L1.33325 27.053Z" stroke="#033969" stroke-width="2" stroke-linecap="round" stroke-linejoin="round"/>
</svg>
